<svg xmlns="http://www.w3.org/2000/svg" viewBox="0 0 64 64" role="img" aria-label="Apple"><rect width="64" height="64" rx="14" fill="#111"/><path fill="#fff" d="M43.9 34.1c-.1-6.2 5.1-9.2 5.3-9.3-2.9-4.3-7.4-4.9-9-4.9-3.8-.4-7.4 2.2-9.3 2.2-1.9 0-4.9-2.1-8-2-4.1.1-7.9 2.4-10 6.1-4.3 7.4-1.1 18.4 3.1 24.4 2 3 4.5 6.3 7.7 6.2 3.1-.1 4.3-2 8-2s4.8 2 8.1 1.9c3.3-.1 5.5-3 7.5-6 2.4-3.5 3.4-6.8 3.4-7-.1 0-6.7-2.6-6.8-9.6zM37.8 15.9c1.7-2 2.8-4.8 2.5-7.6-2.4.1-5.2 1.6-6.9 3.6-1.5 1.7-2.9 4.6-2.5 7.3 2.6.2 5.2-1.3 6.9-3.3z"/></svg>
